PathFileType	4	(X/Y/Z)	Patient4_TMGait_0pt2_02_left_15.trc.trc
DataRate	CameraRate	NumFrames	NumMarkers	Units	OrigDataRate	OrigDataStartFrame	OrigNumFrames
42.424242424242	42.424242424242	5	33	mm	42.424242424242	1	       141
Frame#	Time	R.Midfoot.Superior			Sacral			L.Shoulder			Chest			R.Shoulder			Neck			R.ASIS			L.ASIS			R.Thigh.Superior			R.Thigh.Lateral			R.Thigh.Inferior			R.Patella			L.Thigh.Superior			L.Thigh.Lateral			L.Thigh.Inferior			L.Patella			L.Shank.Superior			L.Shank.Lateral			L.Shank.Inferior			R.Shank.Superior			R.Shank.Lateral			R.Shank.Inferior			R.Heel			R.Midfoot.Lateral			R.Toe			L.Heel			L.Midfoot.Lateral			L.Midfoot.Superior			L.Toe			L.Elbow			L.Wrist			R.Elbow			R.Wrist			
		X1	Y1	Z1	X2	Y2	Z2	X3	Y3	Z3	X4	Y4	Z4	X5	Y5	Z5	X6	Y6	Z6	X7	Y7	Z7	X8	Y8	Z8	X9	Y9	Z9	X10	Y10	Z10	X11	Y11	Z11	X12	Y12	Z12	X13	Y13	Z13	X14	Y14	Z14	X15	Y15	Z15	X16	Y16	Z16	X17	Y17	Z17	X18	Y18	Z18	X19	Y19	Z19	X20	Y20	Z20	X21	Y21	Z21	X22	Y22	Z22	X23	Y23	Z23	X24	Y24	Z24	X25	Y25	Z25	X26	Y26	Z26	X27	Y27	Z27	X28	Y28	Z28	X29	Y29	Z29	X30	Y30	Z30	X31	Y31	Z31	X32	Y32	Z32	X33	Y33	Z33	

1	34.250000000000	1075.272552448304	96.786238125506	607.753513831239	843.446958460267	1005.349826958349	545.730531922885	1045.513353631103	1424.960258058578	353.647393684164	1134.514034877924	1360.073295621994	522.764412684414	1042.358987536152	1443.572626413238	686.913916536760	1016.718296433070	1491.255847859682	508.057938944057	1072.091834458513	940.257620761898	666.805549789549	1061.996861225937	957.134691219217	392.577983255541	1119.514126627222	742.566411201023	622.719247292384	1046.885725583394	626.375885483264	682.680093558712	1120.317653624819	579.573795847086	595.562818127668	1125.598811972686	488.824026404837	598.621303833152	1096.164761765412	738.215457390426	403.937492212277	1005.531298979762	631.500526818689	325.159263218588	1092.361493518175	542.756871378379	374.310965582452	1084.565187539560	460.594352022483	363.015302829744	1019.000879450950	405.346938243045	351.781019197174	881.676578836524	356.281246261883	301.954261615433	878.367775049364	222.076780036137	343.751596591050	1091.160460053823	399.889853247382	605.155010404515	1020.864434300152	298.790556047769	672.359372025430	1047.602887018071	203.473698699719	603.964158224098	901.520970759268	43.751155262389	589.667969002852	992.044848809101	37.155241312096	655.219237491800	1197.967721675257	45.367155289616	623.824346883712	694.621339286086	140.343112754049	379.126627848914	753.467979999520	97.433800108037	299.309542923956	857.015042692496	115.654391715025	316.557291642816	942.995698045598	33.839668293495	292.315280024271	1069.311561073156	1078.422194329783	222.358845605738	1277.780310387449	917.145180102610	211.601980256475	926.188491264212	1121.662521167191	820.202903810703	935.250105143551	857.733422418941	839.163393905739	
2	34.273571428571	1070.894916044422	96.695394831062	607.747066173045	842.591914212894	1002.356382307223	552.017783993036	1041.029441863257	1422.353653874891	357.227745848225	1132.989070938381	1357.557602155699	524.882152108770	1043.613366080044	1440.679548046147	690.757067485053	1015.298451010686	1488.947900339084	512.172803267440	1073.166823348837	938.164774093584	669.913712423560	1058.926458917156	955.373038785704	396.141470681930	1121.755523025595	741.068998468419	624.654074696091	1050.308462980929	623.972606636470	684.162051251323	1123.496382399731	578.213151174707	596.252852687964	1129.066144775483	486.457809289847	598.697954461284	1102.738667740743	742.298063827113	408.439997645770	1019.614283609268	632.563420709342	328.362727665477	1109.803288537282	547.638758257000	378.774341680497	1104.714909351681	463.937862183542	366.544776487876	1037.477308847877	407.697745378695	354.644705379592	898.270932512259	364.297562739669	304.615653659608	890.096823791417	230.143667563822	345.569305744514	1092.801952285350	397.654292684516	605.160536441757	1021.212490789097	297.562146422487	672.551478476302	1045.640827226982	202.172152320833	603.696355563772	896.994492519636	43.811614403932	589.685113985834	987.513725838375	37.219495440518	655.280582684796	1193.474481497993	44.976449083442	623.904716197011	704.255489681182	160.385026947401	381.639298956045	758.941995294110	113.483428305636	301.221264732025	863.115005063925	122.978125699514	317.780715071810	940.475667271446	32.153471040326	292.324398698627	1054.111645693996	1072.757378821823	232.647742165082	1235.697055620557	891.056660865988	222.920589714156	943.969433969186	1113.837861275887	825.772457356191	967.636006877064	851.938687127268	844.554156832312	
3	34.297142857143	1066.301244409851	96.598142254368	607.720146475222	841.722054264195	999.276936794419	558.422139765126	1036.256099021998	1419.669063712218	360.886316410260	1131.344882764395	1354.973278054082	526.960147126425	1044.953806151616	1437.717537408262	694.637675959882	1013.783472337803	1486.588801271988	516.363817602500	1074.242180411866	935.985758269774	673.020801799261	1055.761146537492	953.601300578921	399.722511913515	1123.965027874171	739.469882985165	626.541722871384	1053.719086783267	621.478941510552	685.583239150967	1126.614119821775	576.769825216698	596.832915262359	1132.449768387720	484.021711985075	598.632781633756	1109.278332073983	746.649373300523	413.115756363186	1033.850365423302	633.888451246385	331.750030051876	1127.381795399084	552.937029784722	383.476912219462	1125.136648608434	467.707472317138	370.324427139528	1056.310819882694	410.370595084308	357.776455644390	915.188619252021	372.320874408417	307.677018337827	902.486558003220	238.109120715507	347.775069220362	1094.349546059647	395.345984400280	605.062423103374	1021.452596874305	296.294633235410	672.673888292868	1043.508743183724	200.834753903792	603.384286917284	892.256630480439	43.876495483708	589.710142004983	982.766786456651	37.277538959266	655.336936532646	1188.768613668967	44.576008272250	623.980866899958	714.597139700135	179.332317320610	384.609703933786	765.419222188809	128.986342193884	303.460970077412	870.226556768460	130.363146140709	319.349110686041	939.506167591738	30.825765464832	292.315474075368	1037.700898030021	1067.190572451959	243.186533611328	1191.303588160593	865.855744058487	234.922113427235	963.042376941258	1106.039391492865	831.274858178695	1002.553528549172	846.800421661131	849.573631258333	
4	34.320714285714	1061.586793504255	96.497362457436	607.672534388309	840.869680453916	996.264625396286	564.735672858660	1031.281575319428	1417.049100094203	364.509180504476	1129.614020084009	1352.444613690093	528.881984285280	1046.395047413876	1434.827268181710	698.395274437239	1012.210710179286	1484.300542605473	520.488089608587	1075.277431923538	933.816607464621	675.981916333426	1052.568242554696	951.924712107201	403.170331596580	1125.997344949571	737.816481099644	628.286006986997	1056.907513114572	618.996822934729	686.877611314401	1129.442324417370	575.288272630021	597.256163975117	1135.491754961430	481.616095170278	598.404265837894	1115.428573926013	751.174551940731	417.809786416159	1047.585937463055	635.513370427600	335.234097951042	1144.279843885530	558.551767194046	388.291667918638	1144.948171829392	471.904090786832	374.271469228465	1074.784475342440	413.361285947249	361.116039017873	931.859654321026	379.852635996214	311.103992920352	915.437624323265	245.450198210196	350.361551707135	1095.627022583195	393.059860987241	604.849478197771	1021.475620090546	295.038352403414	672.715493241655	1041.192326795735	199.518051308128	603.038599254491	887.409966920176	43.942808041981	589.746079487300	977.905685204751	37.324213745883	655.386798027042	1183.950192467977	44.182610200457	624.048048445958	725.772021570973	195.645409830436	387.998907935165	773.323235904422	142.805832368237	305.982810548318	878.723011826223	137.359942418515	321.258836572616	941.145670859811	30.041907818809	292.243176832706	1020.271695218294	1062.121069248075	253.609297196332	1145.676749334997	843.059312986776	247.384567001402	983.170672639140	1098.721044575532	836.429632980256	1039.587250421275	843.045913755819	853.788345119502	
5	34.344285714286	1056.821521277507	96.396246865014	607.609037760421	840.065196047721	993.487892504817	570.802411240341	1026.185034568951	1414.654643369589	368.010691961126	1127.834001901385	1350.105496204448	530.547672434859	1047.971428722645	1432.155049486561	701.894103111004	1010.621390457075	1482.214518571108	524.433210612243	1076.242639878257	931.762719553166	678.670148001218	1049.404678745768	950.469284997651	406.355538357933	1127.705437902822	736.163720373153	629.811632543220	1059.662827731593	616.636561884233	688.011054224735	1131.744314097585	573.819226394533	597.505100600368	1137.925414145420	479.340937638089	598.024332643227	1120.860292075099	755.773685266472	422.370131827346	1060.208053102115	637.450633888995	338.727149930180	1159.746588903859	564.356004267097	393.088460746109	1163.338907066908	476.503607792385	378.291614018080	1092.261188013262	416.640649602216	364.579343634322	947.818175016894	386.376860941422	314.816350523458	928.952086595693	251.644951833204	353.261903303765	1096.439340559789	390.893863095177	604.536791419008	1021.154440982849	293.843606320834	672.688043117586	1038.655788421189	198.279637309969	602.681107230516	882.530292717800	44.006528008494	589.796174799617	973.006423638996	37.355681817504	655.431870708548	1179.093002791635	43.812590831756	624.103047913804	738.028687082075	207.875619564739	391.695500187480	783.162339584730	153.832578897846	308.684560566256	889.062251926349	143.485640728129	323.443647781580	946.501480279932	29.952338232052	292.050312270628	1001.990132982058	1057.957121463813	263.598363601109	1099.840523706398	823.919417811822	260.125157054645	1004.169693992192	1092.330276365189	841.000698577105	1078.372775364725	841.424426845556	856.811628093601	
